<?xml version="1.0" standalone="no"?>
<!DOCTYPE svg PUBLIC "-//W3C//DTD SVG 20010904//EN"
 "http://www.w3.org/TR/2001/REC-SVG-20010904/DTD/svg10.dtd">
<svg version="1.0" xmlns="http://www.w3.org/2000/svg"
 width="3000.000000pt" height="3000.000000pt" viewBox="0 0 3000.000000 3000.000000"
 preserveAspectRatio="xMidYMid meet">
<metadata>
Created by potrace 1.14, written by Peter Selinger 2001-2017
</metadata>
<g transform="translate(0.000000,3000.000000) scale(0.100000,-0.100000)"
fill="#000000" stroke="none">
<path d="M2 29743 l3 -257 475 -63 c261 -34 612 -80 780 -102 168 -22 1300
-171 2515 -331 1216 -160 2327 -306 2470 -325 143 -19 913 -120 1710 -225
1451 -191 2297 -302 2925 -385 184 -24 664 -87 1065 -140 402 -52 742 -98 758
-102 27 -8 26 -9 -30 -39 -32 -16 -195 -105 -363 -197 -168 -92 -317 -167
-330 -167 -22 0 -260 33 -2000 275 -865 120 -1538 214 -2130 295 -283 39 -787
109 -1120 156 -966 136 -2120 297 -2860 399 -377 53 -811 113 -965 135 -451
64 -2441 340 -2733 379 -84 12 -157 21 -162 21 -15 0 -13 -1323 1 -1337 8 -8
8 -13 0 -17 -14 -9 -16 -856 -1 -856 5 0 478 -57 1052 -126 574 -69 1189 -143
1368 -164 179 -22 701 -85 1160 -140 2258 -272 4244 -511 4900 -590 278 -33
509 -62 513 -63 7 -2 -265 -155 -548 -308 -33 -17 -168 -91 -300 -164 -132
-73 -271 -149 -310 -170 -38 -21 -162 -88 -275 -150 -113 -62 -326 -179 -475
-260 -148 -81 -292 -160 -320 -175 -368 -202 -930 -508 -1038 -567 l-137 -75
-88 30 c-465 161 -1065 172 -1630 30 l-84 -21 -41 40 c-55 52 -233 196 -322
259 -367 262 -759 411 -1270 480 -161 23 -741 26 -925 6 -382 -42 -741 -116
-1063 -219 l-177 -57 0 -183 c0 -101 2 -183 5 -183 3 0 22 8 43 19 231 116
830 253 1272 291 160 14 575 14 722 0 207 -19 490 -77 619 -125 260 -99 425
-187 624 -335 154 -114 255 -203 286 -252 17 -26 47 -58 67 -70 51 -32 148
-30 261 6 198 61 515 106 756 106 523 0 882 -109 1175 -356 129 -108 384 -399
584 -665 93 -123 201 -323 234 -430 35 -114 55 -305 55 -534 1 -237 -12 -328
-67 -498 -34 -102 -51 -141 -121 -272 -31 -60 -36 -77 -32 -117 8 -90 84 -153
182 -150 32 1 94 18 175 48 158 59 246 69 300 32 72 -48 94 -119 130 -432 22
-193 43 -253 106 -296 51 -34 135 -38 239 -11 244 62 493 68 698 16 66 -17
148 -48 287 -110 52 -23 105 -46 117 -51 21 -9 21 -10 4 -44 -91 -187 -222
-510 -241 -596 -9 -38 -29 -68 -108 -158 -185 -211 -219 -252 -373 -446 -477
-602 -870 -1188 -1235 -1842 -215 -384 -353 -679 -450 -958 -152 -440 -148
-690 17 -1067 128 -291 369 -614 561 -752 43 -31 45 -34 38 -68 -5 -19 -10
-37 -13 -39 -2 -2 -132 128 -288 288 -387 400 -459 476 -819 862 -66 71 -102
86 -205 86 -51 0 -99 -6 -118 -14 -34 -15 -151 -130 -293 -291 -49 -55 -93
-102 -98 -104 -6 -2 -202 235 -436 529 l-28 35 50 105 c50 103 108 227 153
325 166 360 194 548 130 855 -57 268 -139 431 -317 630 -87 98 -338 340 -487
471 -47 41 -114 101 -150 135 -156 144 -431 359 -886 691 -242 176 -480 300
-728 378 -278 88 -493 71 -762 -62 -288 -142 -436 -362 -520 -775 -35 -175
-90 -535 -130 -855 l-7 -53 -61 0 c-332 -1 -681 -132 -869 -326 l-48 -49 0
-952 0 -952 29 -78 c80 -217 196 -438 270 -514 44 -45 118 -79 173 -79 33 0
88 29 135 70 44 39 138 90 165 90 9 0 18 -21 25 -54 6 -30 24 -85 38 -122 15
-38 43 -109 62 -159 34 -87 75 -187 111 -269 173 -396 411 -682 629 -755 76
-26 189 -28 276 -5 63 16 252 104 366 170 35 21 62 33 59 28 -110 -229 -157
-377 -183 -575 -8 -62 -16 -114 -18 -115 -2 -2 -28 15 -57 37 -81 61 -243 136
-355 165 -251 64 -530 11 -720 -138 -137 -108 -203 -246 -227 -473 -13 -125
-6 -169 34 -220 55 -71 182 -73 245 -4 31 34 42 68 53 172 20 181 51 238 158
295 196 105 441 69 644 -94 68 -55 132 -135 184 -232 58 -109 131 -148 221
-118 54 18 115 73 133 121 7 17 16 136 21 266 14 377 31 458 151 733 24 56 29
79 26 118 -8 78 -61 135 -137 145 l-42 6 58 37 c49 31 163 99 597 358 59 35
59 35 75 15 112 -142 272 -359 337 -456 l81 -122 -65 -85 c-122 -158 -289
-365 -348 -431 -33 -37 -108 -122 -168 -190 -60 -68 -133 -149 -162 -179 -96
-102 -279 -311 -298 -342 -27 -42 -25 -106 5 -160 13 -24 42 -77 64 -117 83
-151 235 -401 335 -551 156 -233 389 -566 1257 -1795 66 -93 151 -214 189
-269 38 -54 92 -130 120 -170 27 -39 99 -141 159 -226 59 -85 149 -213 200
-285 190 -269 968 -1409 1018 -1492 4 -7 -10 -21 -37 -37 -53 -31 -147 -105
-225 -178 -93 -87 -78 -83 -172 -38 -141 67 -266 78 -395 35 -83 -28 -135 -58
-195 -112 l-40 -36 -147 12 c-320 26 -629 -36 -863 -174 -108 -63 -208 -144
-266 -215 -60 -73 -65 -76 -108 -60 -105 40 -239 29 -353 -29 -54 -27 -167
-110 -183 -134 -4 -5 -31 3 -62 17 -157 71 -297 96 -437 78 -110 -15 -236 -59
-310 -109 -77 -52 -184 -156 -237 -231 -48 -66 -51 -68 -154 -76 -120 -11
-275 -61 -382 -124 -68 -39 -155 -123 -216 -205 -62 -85 -157 -260 -177 -328
-14 -45 -22 -59 -34 -55 -8 3 -65 25 -126 50 -185 77 -254 90 -439 90 -158 -1
-233 -12 -337 -53 l-28 -11 0 -180 c0 -206 -5 -198 90 -150 94 48 177 63 310
57 81 -3 136 -11 185 -27 88 -28 249 -106 339 -164 119 -78 207 -80 276 -7 44
46 60 97 60 194 0 99 26 182 92 290 68 111 119 172 177 208 68 44 185 77 293
84 181 13 228 38 322 179 101 149 210 223 350 233 94 7 143 -5 280 -69 185
-87 241 -80 377 47 100 94 159 124 207 107 16 -5 58 -30 95 -55 80 -55 133
-66 195 -42 53 22 83 57 126 150 88 190 311 326 607 369 132 20 217 20 387 1
188 -21 236 -9 327 85 62 64 91 80 149 80 60 0 84 -10 195 -82 86 -56 99 -61
150 -62 34 0 68 7 87 17 18 9 87 72 155 140 107 107 255 227 280 227 8 0 754
-1114 954 -1425 70 -110 160 -249 200 -310 39 -60 148 -227 241 -370 165 -254
362 -540 592 -860 63 -88 116 -165 119 -171 2 -6 -62 -35 -149 -69 -84 -31
-184 -70 -223 -85 -38 -16 -95 -38 -125 -49 -30 -12 -75 -30 -100 -41 -25 -10
-88 -36 -140 -56 -52 -20 -176 -70 -275 -111 -159 -65 -208 -86 -330 -138 -16
-7 -57 -25 -90 -38 -70 -30 -261 -112 -390 -167 -49 -21 -144 -62 -210 -90
-128 -55 -163 -71 -265 -118 -36 -16 -99 -44 -140 -62 -108 -47 -533 -264
-685 -350 -669 -378 -981 -677 -1117 -1069 -73 -210 -138 -619 -138 -868 l0
-103 169 0 168 0 7 131 c18 337 76 649 153 817 120 262 404 503 963 814 202
113 567 294 810 401 970 429 2327 976 2354 950 16 -16 -3 -714 -29 -1128 -15
-228 -29 -780 -39 -1572 l-6 -413 169 0 168 0 7 143 c4 78 11 459 16 847 5
424 15 801 24 945 33 511 47 1150 26 1255 -4 25 -8 46 -7 46 4 4 280 -16 442
-31 371 -34 954 -112 1400 -186 200 -33 568 -97 603 -104 21 -5 22 -10 22
-113 0 -59 7 -253 15 -432 8 -179 19 -512 25 -740 6 -228 15 -577 21 -775 5
-198 12 -471 16 -607 l6 -248 175 0 174 0 -6 122 c-12 233 -49 1639 -44 1643
7 5 449 149 691 224 465 145 753 223 1252 336 209 48 445 85 536 85 82 0 226
-23 242 -39 11 -11 18 8 -125 -366 -169 -440 -237 -634 -499 -1410 -109 -324
-199 -591 -199 -592 0 -2 81 -3 179 -3 l179 0 132 397 c219 658 390 1138 565
1588 26 66 56 147 67 180 11 33 24 64 28 69 20 21 461 -223 575 -318 l30 -25
-42 -42 -41 -42 -47 31 c-98 65 -193 62 -269 -8 -54 -50 -82 -108 -151 -312
-86 -252 -358 -1174 -425 -1438 -6 -25 -13 -53 -16 -62 -5 -17 8 -18 170 -18
l175 0 20 68 c10 37 45 159 76 272 94 339 329 1116 341 1129 8 8 158 -114 279
-226 69 -65 158 -146 198 -181 40 -35 73 -69 75 -76 1 -6 -15 -77 -37 -156
-68 -249 -191 -773 -191 -814 0 -15 262 -16 2779 -16 l2780 0 4 27 4 28 2 -30
c2 -26 3 -27 11 -10 7 17 9 17 9 3 1 -16 16 -18 176 -18 l175 0 0 83 c0 79
-77 4386 -101 5630 -6 329 -10 600 -8 601 25 23 713 476 716 472 5 -5 272
-6587 273 -6718 l0 -68 175 0 174 0 -5 82 c-4 72 -274 6809 -274 6847 0 16 -3
16 815 -19 736 -32 798 -35 1800 -105 1296 -91 2040 -151 2850 -230 629 -62
2129 -195 2196 -195 l39 0 0 574 0 574 -32 11 c-494 156 -967 289 -1303 366
-66 15 -125 33 -131 39 -8 8 -15 221 -23 701 -6 380 -18 1046 -26 1480 -48
2528 -65 3506 -65 3636 l0 145 118 34 c64 18 253 80 420 137 411 140 544 188
890 325 l152 60 0 179 c0 98 -4 179 -8 179 -5 0 -53 -18 -108 -39 -679 -270
-1355 -504 -1584 -551 -127 -25 -549 -33 -561 -10 -5 8 -28 58 -51 110 -68
153 -203 412 -305 588 -52 90 -93 165 -91 167 5 5 46 20 943 347 303 110 777
284 1055 385 278 102 551 201 608 220 l102 36 0 179 c0 98 -4 178 -9 178 -5 0
-177 -61 -382 -136 -206 -75 -432 -158 -504 -184 -71 -26 -281 -102 -465 -170
-184 -67 -400 -146 -480 -175 -80 -28 -351 -127 -603 -219 -251 -92 -461 -164
-466 -161 -5 3 -34 40 -64 83 -125 179 -348 450 -529 645 -55 59 -99 110 -96
112 2 2 199 72 438 155 239 83 505 175 590 205 85 30 254 89 375 131 121 42
535 185 920 319 385 134 799 278 920 319 121 42 249 87 285 100 l65 24 3 181
2 181 -27 -11 c-16 -6 -287 -101 -603 -211 -316 -110 -620 -215 -675 -235 -55
-19 -170 -59 -255 -88 -85 -29 -351 -121 -590 -205 -239 -83 -595 -207 -790
-275 -195 -68 -487 -169 -647 -225 l-293 -102 -82 74 c-176 156 -440 362 -610
476 -42 28 -79 56 -82 61 -3 5 121 56 277 114 155 58 377 142 492 185 116 44
383 145 595 225 212 80 489 184 615 232 127 48 419 158 650 245 472 178 889
335 1325 500 162 61 386 145 498 187 l202 76 0 948 c0 522 -2 949 -4 949 -2 0
-88 -34 -192 -77 -104 -42 -220 -88 -259 -103 -38 -15 -164 -66 -280 -113
-773 -312 -864 -349 -1670 -674 -170 -69 -438 -177 -595 -240 -157 -63 -424
-171 -595 -240 -509 -205 -679 -274 -690 -279 -6 -2 -10 26 -11 73 -1 111 -35
183 -124 266 -72 66 -278 183 -589 333 -139 68 -152 76 -135 88 10 7 30 17 44
21 24 8 262 107 480 201 113 49 154 66 270 114 41 17 89 38 105 45 17 7 53 22
80 33 28 11 106 43 175 71 200 83 784 315 965 383 44 17 118 45 165 63 47 18
166 62 265 99 99 37 214 80 255 96 42 16 159 59 260 96 429 155 585 213 870
322 102 38 217 82 255 97 137 51 790 309 893 352 l62 26 0 184 0 183 -37 -16
c-21 -9 -60 -24 -88 -34 -27 -10 -158 -62 -290 -115 -132 -53 -339 -135 -460
-181 -121 -47 -247 -96 -280 -109 -59 -23 -258 -99 -465 -177 -58 -21 -141
-52 -185 -68 -279 -99 -881 -322 -1260 -467 -356 -135 -1119 -439 -1315 -523
-25 -11 -126 -54 -225 -95 -99 -42 -193 -82 -210 -90 -49 -22 -601 -252 -661
-275 -18 -7 -31 9 -119 158 -309 523 -492 777 -856 1192 l-57 65 14 65 c55
260 34 540 -63 835 -78 239 -208 443 -432 674 -44 47 -81 85 -81 86 0 2 68 32
215 96 66 28 138 59 160 69 22 10 90 39 150 65 61 26 128 55 150 65 22 10 90
39 150 65 61 26 128 55 150 65 22 10 90 39 150 65 61 26 128 55 150 65 22 10
103 45 180 78 167 72 388 168 430 187 17 7 93 40 170 73 77 33 199 85 270 117
182 79 372 162 565 245 91 39 226 98 300 130 74 32 209 91 300 130 91 39 210
91 265 115 55 24 168 72 250 108 394 170 750 325 800 347 22 10 69 30 105 45
36 15 83 35 105 45 70 31 481 209 765 332 63 27 129 55 145 63 17 7 84 36 150
65 66 28 134 57 150 65 17 7 84 36 150 65 66 28 134 58 150 65 17 8 84 37 150
66 66 28 134 57 150 64 128 56 177 76 181 73 2 -2 -16 -21 -40 -41 -24 -20
-72 -73 -105 -118 -351 -465 -376 -1434 -56 -2115 55 -117 157 -278 225 -354
l40 -45 0 313 0 313 -40 117 c-81 241 -116 505 -107 811 7 256 44 441 123 620
l24 53 0 2154 0 2154 -4450 0 -4450 0 -153 -71 c-143 -67 -212 -99 -367 -171
-36 -17 -101 -47 -145 -68 -151 -71 -230 -107 -300 -140 -38 -18 -117 -54
-173 -81 -57 -27 -105 -49 -107 -49 -1 0 -67 -31 -146 -68 -79 -38 -169 -80
-199 -95 -98 -45 -222 -104 -345 -162 -111 -53 -159 -75 -290 -135 -42 -19
-187 -86 -695 -322 -36 -17 -103 -49 -150 -71 -81 -38 -152 -71 -320 -150 -41
-19 -124 -58 -184 -86 -59 -28 -109 -51 -111 -51 -1 0 -63 -29 -136 -64 -74
-35 -159 -75 -189 -89 -126 -57 -225 -104 -440 -205 -47 -21 -116 -54 -155
-72 -38 -18 -108 -50 -155 -72 -47 -22 -110 -51 -140 -66 -30 -14 -115 -54
-189 -89 -73 -34 -135 -63 -136 -63 -2 0 -50 -22 -107 -49 -56 -26 -132 -62
-168 -78 -69 -32 -633 -296 -760 -356 -41 -19 -172 -80 -290 -135 -118 -55
-260 -121 -315 -147 -55 -26 -127 -60 -160 -75 -33 -15 -100 -47 -150 -70 -49
-23 -119 -56 -155 -72 -82 -38 -169 -78 -290 -135 -52 -25 -120 -56 -150 -70
-30 -15 -115 -55 -189 -90 -73 -34 -135 -63 -137 -63 -2 0 -69 -31 -150 -70
-80 -38 -148 -70 -149 -70 -2 0 -50 -22 -107 -49 -177 -84 -261 -123 -323
-151 -33 -15 -100 -47 -150 -70 -233 -110 -297 -140 -300 -140 -1 0 -63 -29
-136 -63 -160 -76 -234 -111 -314 -147 -33 -15 -105 -49 -160 -75 -115 -54
-226 -106 -305 -142 -30 -14 -120 -57 -200 -95 -80 -39 -237 -113 -350 -165
-113 -52 -243 -113 -288 -134 -46 -21 -85 -39 -87 -39 -2 0 -50 -22 -107 -49
-56 -27 -134 -63 -173 -81 -38 -18 -108 -51 -155 -73 -107 -50 -381 -178 -480
-224 -41 -19 -109 -51 -150 -70 -41 -20 -109 -51 -150 -70 -114 -53 -196 -92
-290 -135 -47 -22 -112 -53 -145 -68 -33 -15 -103 -48 -155 -73 -52 -24 -120
-56 -150 -70 -30 -13 -95 -44 -145 -67 -49 -23 -117 -55 -150 -70 -33 -15
-105 -49 -160 -75 -55 -26 -230 -108 -390 -182 -159 -74 -328 -153 -375 -175
-159 -75 -315 -147 -325 -150 -6 -2 -54 47 -107 108 l-96 112 91 50 c51 27
124 67 162 87 39 21 117 64 175 95 58 32 146 79 195 105 50 26 104 56 120 65
17 10 62 34 100 55 39 21 97 52 130 70 75 41 527 285 615 333 36 19 112 60
170 92 109 59 186 101 305 165 39 21 88 48 110 60 22 12 72 39 110 60 192 102
598 322 658 356 38 22 71 39 73 39 3 0 39 20 82 44 42 23 118 64 167 91 50 26
137 73 195 105 58 31 137 74 175 95 39 20 147 79 240 130 769 418 715 389 830
450 50 26 137 73 195 105 58 31 139 75 180 97 73 40 152 82 670 363 135 73
279 150 320 173 41 22 125 67 185 100 173 95 195 106 475 257 285 153 308 166
475 257 61 33 151 82 200 108 50 27 150 81 223 122 73 40 134 73 136 73 1 0
56 30 122 66 130 73 365 200 689 374 116 62 233 125 260 140 28 15 75 41 105
57 30 17 71 39 90 50 19 11 80 44 135 73 55 29 132 70 170 90 69 37 91 49 295
160 58 31 139 75 180 97 41 23 206 111 365 198 160 86 324 175 365 197 41 22
98 53 125 68 28 15 79 43 115 62 59 32 582 315 725 393 33 18 150 81 260 140
110 59 220 119 245 133 47 26 110 80 110 94 0 4 -374 8 -831 8 l-831 0 -106
-59 c-59 -32 -233 -127 -387 -211 -154 -84 -408 -224 -565 -310 -157 -86 -321
-176 -365 -200 -218 -118 -833 -454 -852 -466 -34 -21 -46 -17 -70 25 -15 25
-37 46 -65 59 -32 15 -253 51 -873 141 -1057 154 -2074 302 -2375 346 -424 62
-2008 293 -2330 340 -173 25 -407 59 -520 76 -113 16 -557 81 -988 144 l-783
115 -3230 0 -3229 0 2 -257z m1553 -2708 c208 -19 463 -52 595 -75 145 -26 57
-19 -320 26 -483 58 -608 80 -275 49z m19285 -3339 c495 -61 953 -221 1375
-481 189 -116 346 -237 489 -375 235 -228 343 -383 414 -597 56 -166 67 -239
66 -443 0 -169 -2 -194 -27 -285 -38 -140 -112 -288 -179 -356 -95 -96 -230
-153 -448 -186 -92 -14 -174 -18 -415 -17 -524 1 -762 33 -1345 180 -537 136
-699 185 -975 297 -556 226 -585 239 -771 343 -126 70 -231 140 -408 271
l-107 80 -3 154 c-4 180 -21 259 -92 408 l-44 95 41 60 c110 159 229 288 368
399 318 253 754 407 1291 457 63 5 133 12 155 14 81 8 504 -4 615 -18z m-4480
-361 c496 -44 883 -141 1207 -304 409 -205 620 -485 600 -795 -15 -231 -130
-441 -372 -681 -574 -569 -1671 -985 -2851 -1081 -253 -20 -817 -15 -1024 10
-667 81 -1174 274 -1458 556 -216 215 -278 456 -187 727 209 622 1231 1230
2475 1472 242 47 577 91 790 104 169 10 671 6 820 -8z m1830 -211 c0 -13 -42
-64 -53 -64 -7 1 -30 16 -51 35 l-39 35 71 0 c40 0 72 -3 72 -6z m1485 -2746
c3 -2 -14 -28 -36 -57 -131 -173 -225 -329 -266 -442 -24 -65 -27 -89 -27
-194 -1 -199 27 -248 294 -515 204 -204 318 -299 429 -354 206 -104 363 -105
535 -4 167 99 423 346 738 713 113 132 222 255 241 273 l35 34 52 -27 c154
-78 337 -219 555 -426 210 -200 395 -371 539 -496 383 -337 565 -475 704 -535
71 -30 85 -33 178 -33 l101 1 12 -97 c20 -164 100 -631 117 -683 22 -66 75
-115 154 -145 651 -242 1287 -635 1835 -1132 1161 -1053 1893 -2495 2021
-3984 21 -239 15 -766 -10 -975 -86 -708 -289 -1284 -641 -1820 -153 -234
-261 -367 -460 -566 -202 -202 -334 -312 -542 -451 -87 -58 -149 -106 -160
-125 l-18 -30 -80 7 c-174 14 -728 21 -1060 13 -192 -4 -356 -10 -362 -13 -17
-6 -17 -9 11 125 138 656 49 1376 -256 2072 -341 779 -920 1460 -1662 1953
-348 230 -660 385 -1045 516 -1165 398 -2337 241 -3161 -424 -115 -93 -280
-258 -380 -381 -158 -195 -325 -489 -414 -727 -273 -736 -239 -1565 98 -2404
57 -141 197 -416 288 -568 269 -446 607 -837 1021 -1182 59 -48 105 -90 103
-92 -5 -5 -627 71 -836 102 -96 15 -431 66 -745 115 -313 49 -745 114 -960
144 -655 92 -831 106 -1382 106 l-393 0 0 35 c0 47 -21 94 -56 127 -16 14 -92
54 -169 88 -140 61 -597 291 -690 347 -28 17 -108 63 -180 103 -183 103 -262
151 -405 245 -181 120 -249 180 -313 277 -49 74 -166 298 -227 433 -12 28 -37
82 -55 120 -76 165 -83 188 -89 280 -3 50 -15 142 -26 205 -57 325 -86 507
-149 960 -80 569 -122 922 -186 1590 -25 261 -66 660 -90 885 -67 620 -92 868
-125 1240 -16 187 -39 441 -50 565 -11 124 -27 322 -35 440 -20 285 -53 688
-60 724 -4 21 3 42 27 80 77 122 451 681 523 781 150 209 215 295 223 294 4 0
38 -37 76 -81 156 -181 309 -257 517 -258 234 0 484 140 889 500 125 111 488
450 665 621 431 415 610 572 748 655 73 44 87 49 152 52 61 4 87 -1 181 -33
191 -63 339 -153 601 -363 89 -72 193 -149 232 -172 90 -54 245 -114 343 -134
110 -23 266 -21 364 4 258 66 549 314 645 551 39 95 52 170 52 284 -1 159 -39
288 -154 535 -118 251 -167 318 -334 455 -58 48 -105 89 -103 90 6 6 366 65
543 89 211 29 514 61 740 77 279 20 796 31 810 17z m-17435 -1773 c135 -35
343 -126 485 -213 154 -93 766 -548 945 -702 193 -166 479 -432 626 -581 211
-215 265 -302 321 -510 24 -91 27 -123 28 -249 0 -134 -2 -151 -29 -225 -37
-104 -110 -270 -209 -475 -43 -91 -102 -212 -130 -270 -42 -87 -51 -115 -51
-161 -1 -46 4 -62 27 -93 32 -42 69 -63 123 -72 37 -5 51 -21 254 -274 118
-148 216 -274 218 -279 4 -12 -306 -355 -578 -641 -102 -107 -237 -251 -300
-320 -63 -69 -117 -126 -120 -127 -3 -1 -36 43 -73 98 -37 56 -132 184 -210
286 -98 127 -147 200 -158 234 -28 86 -84 129 -167 129 -41 0 -59 -6 -98 -35
-125 -89 -168 -117 -294 -190 -74 -43 -232 -137 -350 -210 -411 -252 -456
-278 -554 -326 -168 -83 -208 -78 -320 34 -140 141 -250 336 -400 714 -42 105
-76 193 -76 195 0 1 37 3 83 3 69 1 90 5 132 27 144 76 235 261 235 478 0 54
4 73 22 95 41 52 240 214 367 299 255 171 476 266 781 336 118 27 126 27 155
12 17 -9 54 -16 85 -16 71 -1 121 29 149 88 26 53 27 98 1 152 -17 35 -45 58
-178 147 -177 119 -294 219 -527 452 -295 294 -470 544 -505 721 -44 224 186
628 460 810 91 60 152 69 225 34 82 -40 241 -230 367 -440 54 -90 88 -153 248
-460 68 -129 144 -273 170 -320 26 -47 111 -215 189 -374 78 -158 153 -303
167 -321 67 -88 204 -87 272 3 23 30 27 45 26 96 -1 58 -8 76 -176 411 -97
193 -193 379 -213 415 -20 36 -71 130 -112 210 -237 455 -322 600 -453 775
-169 224 -310 329 -483 359 -203 36 -393 -48 -612 -268 -136 -138 -219 -253
-300 -421 -93 -193 -125 -308 -125 -455 0 -314 286 -732 857 -1251 l72 -65
-72 -23 c-272 -87 -553 -235 -796 -420 l-78 -60 -23 247 c-12 136 -27 265 -32
286 -20 83 -115 138 -198 116 -49 -13 -99 -54 -116 -97 -19 -44 -18 -134 5
-358 43 -416 51 -758 21 -842 -14 -38 -24 -39 -120 -17 -36 8 -128 17 -205 20
-167 7 -247 -7 -356 -60 -40 -20 -73 -35 -75 -33 -7 9 -67 134 -89 187 -184
450 -264 854 -253 1283 10 356 86 503 318 615 159 76 223 91 445 102 227 12
270 20 323 66 59 50 76 106 106 354 32 254 87 622 117 770 66 329 161 466 390
562 141 59 260 69 399 33z m9405 -2946 c47 -642 128 -1511 210 -2259 24 -223
60 -574 80 -780 77 -811 118 -1167 206 -1790 62 -442 91 -629 133 -864 25
-138 25 -138 6 -176 -24 -48 -33 -51 -445 -145 -88 -21 -293 -75 -455 -121
-162 -46 -300 -84 -306 -84 -7 0 -16 31 -23 78 -13 95 -43 317 -215 1572 -75
542 -181 1316 -236 1720 -56 404 -108 788 -117 854 l-15 118 38 87 c37 83 207
422 284 566 20 39 61 115 90 170 30 55 64 117 77 137 13 21 23 39 23 42 0 25
637 1092 647 1083 1 -2 10 -95 18 -208z m-2415 -1749 c166 -13 342 -48 481
-95 118 -41 297 -127 379 -183 l55 -37 67 -490 c37 -269 87 -636 112 -815 25
-179 73 -525 106 -770 33 -245 96 -706 140 -1024 44 -319 78 -581 77 -582 -1
-1 -33 35 -72 79 -635 739 -1334 1500 -2464 2682 -295 308 -565 591 -600 628
-76 79 -76 77 22 152 184 140 538 299 826 371 315 78 593 105 871 84z m18838
-240 c2 -102 5 -216 7 -253 3 -65 2 -68 -15 -52 -10 9 -20 28 -23 43 -3 15 -9
36 -13 46 -6 15 -4 17 7 11 10 -6 9 -3 -2 11 -9 10 -21 34 -28 53 -14 41 -14
44 -1 36 6 -3 10 3 10 14 0 12 5 21 12 21 6 0 8 3 5 6 -4 4 -13 1 -22 -6 -18
-15 -16 -17 -36 40 -12 33 -13 53 -6 73 7 21 6 32 -3 40 -7 7 -10 7 -7 2 3 -6
1 -17 -5 -25 -7 -11 -8 -7 -4 16 3 19 0 39 -9 50 -11 15 -14 16 -15 4 0 -12
-3 -11 -11 3 -6 9 -7 26 -4 38 6 18 14 19 83 17 l77 -3 3 -185z m8 -347 c-7
-7 -26 7 -26 19 0 6 6 6 15 -2 9 -7 13 -15 11 -17z m-1 -23 c3 -5 1 -10 -4
-10 -6 0 -11 5 -11 10 0 6 2 10 4 10 3 0 8 -4 11 -10z m46 -2680 c-10 -24 -10
-24 -7 5 8 58 9 60 13 40 2 -12 -1 -32 -6 -45z m8 -85 c0 -31 -3 -55 -9 -55
-13 0 -13 -62 1 -97 6 -17 13 -157 16 -348 3 -176 7 -364 10 -419 4 -70 2 -97
-5 -92 -8 5 -8 -2 -1 -22 6 -19 7 -61 1 -121 -6 -55 -6 -108 -1 -132 5 -22 7
-43 5 -47 -2 -4 -1 -28 4 -52 5 -25 11 -283 14 -574 4 -290 8 -532 11 -536 3
-5 -7 -7 -22 -5 -15 1 -29 8 -31 14 -6 19 -40 33 -48 19 -4 -6 -3 -8 3 -5 6 4
17 -1 24 -10 12 -14 11 -15 -6 -10 -11 3 -36 9 -55 12 -19 4 -39 10 -45 13 -5
4 -23 7 -40 8 -16 1 -39 3 -50 4 l-20 1 20 9 c14 6 6 8 -27 6 -38 -3 -48 0
-48 12 0 13 -3 13 -12 4 -15 -15 -48 -16 -48 -1 0 5 -4 8 -9 5 -11 -7 -41 3
-41 14 0 5 10 6 23 3 17 -3 19 -2 7 6 -27 17 -72 18 -77 1 -4 -12 -3 -13 5 -1
6 8 15 10 23 6 33 -21 -35 -20 -150 3 -70 13 -153 27 -186 31 -33 5 -51 9 -41
9 25 2 19 7 -19 16 -22 5 -26 4 -15 -4 12 -8 11 -10 -8 -10 -13 0 -21 3 -19 8
3 4 -25 7 -61 8 -37 0 -103 6 -147 13 -44 6 -105 14 -135 17 -30 2 -62 7 -70
11 -8 3 -51 8 -95 10 -44 2 -85 9 -92 14 -7 6 -18 7 -24 3 -8 -4 -9 -3 -5 5 5
8 19 10 37 6 18 -4 29 -3 29 4 0 17 -70 13 -76 -4 -7 -16 -34 -21 -34 -6 0 14
23 27 55 30 35 3 46 12 26 19 -9 3 -5 11 14 28 15 13 32 21 36 18 5 -3 12 3
16 13 8 22 33 42 51 43 16 0 10 -24 -6 -26 -24 -3 -26 -4 -14 -16 10 -10 16
-7 28 10 8 12 23 22 32 23 11 1 9 3 -6 7 -32 9 -32 25 1 40 15 7 27 18 28 25
0 7 21 28 45 47 25 19 59 48 75 65 27 27 31 28 52 16 21 -13 21 -13 5 6 -17
18 -16 20 9 47 20 22 32 27 56 23 27 -4 28 -3 12 9 -15 12 -16 16 -5 31 30 39
75 83 84 83 6 0 3 -5 -8 -11 -14 -9 -16 -13 -5 -20 7 -4 10 -11 6 -16 -5 -4
-13 -1 -18 7 -9 13 -10 13 -6 0 6 -22 32 -18 32 5 0 13 6 19 16 17 9 -1 24 7
34 18 11 12 13 20 6 20 -6 0 -14 -7 -17 -15 -10 -24 -24 -17 -24 10 0 17 7 28
21 33 11 5 21 12 21 17 1 14 39 61 46 57 4 -2 9 5 11 14 2 10 16 31 32 47 16
16 29 35 29 43 0 9 4 13 9 10 4 -3 21 15 37 39 15 25 32 45 37 45 4 0 6 -4 3
-8 -2 -4 4 -8 15 -8 18 0 18 1 -3 18 l-23 17 30 -4 30 -5 -25 15 c-19 11 -21
14 -8 15 11 0 15 5 12 15 -4 8 1 17 9 21 8 3 21 19 27 35 7 16 20 29 29 29 14
0 14 2 1 10 -13 8 -12 10 2 10 10 0 17 3 16 8 -3 13 25 62 32 57 4 -3 7 3 6
12 0 10 4 18 11 18 6 0 15 4 20 9 5 5 3 6 -4 2 -17 -10 -16 0 3 29 9 14 20 23
24 20 5 -3 12 0 16 6 5 8 3 9 -6 4 -8 -5 -11 -3 -8 6 3 8 11 13 17 11 7 -1 10
2 6 7 -3 6 1 25 10 43 8 18 13 25 10 15 -3 -10 -1 -15 5 -12 6 3 10 2 10 -3 0
-5 7 -9 16 -9 15 0 15 1 1 12 -18 13 -16 44 6 96 16 36 40 63 48 54 3 -2 5 5
6 16 1 11 -2 17 -7 14 -6 -4 19 54 38 84 1 2 5 2 8 -1 3 -4 -2 -17 -10 -31
-16 -24 -13 -57 5 -57 13 0 11 18 -3 22 -9 3 -8 11 4 30 9 14 14 35 11 47 -3
11 1 31 9 43 8 13 20 40 27 61 7 20 17 37 23 37 6 0 8 7 5 15 -4 8 -2 17 3 20
5 3 10 -3 12 -12 3 -10 5 1 5 24 0 23 8 54 17 68 9 14 14 30 11 35 -11 17 7
11 22 -7 13 -16 13 -16 4 4 -15 29 -14 56 1 47 8 -5 9 -2 5 10 -5 14 -3 17 8
12 8 -3 15 -1 15 4 0 6 -4 10 -9 10 -13 0 9 83 25 96 17 14 19 28 2 18 -7 -5
-8 -3 -2 7 4 8 10 23 11 34 2 10 7 22 11 25 4 3 8 18 9 34 1 16 6 32 11 35 4
3 9 17 9 30 1 13 7 27 14 31 6 4 9 12 5 18 -3 6 -3 18 1 29 6 16 8 15 15 -7 5
-17 6 -11 3 18 -4 31 -2 42 9 42 9 0 14 -16 15 -55z m-2 -122 c-3 -10 -5 -4
-5 12 0 17 2 24 5 18 2 -7 2 -21 0 -30z m-15664 -1176 c44 -97 77 -180 73
-184 -9 -9 -297 -58 -603 -103 -150 -21 -285 -46 -300 -54 -16 -8 -40 -26 -55
-40 l-26 -26 -83 101 c-46 56 -103 125 -127 153 -23 27 -39 53 -35 56 11 9
424 125 558 156 61 14 196 47 300 74 105 26 196 47 204 46 8 0 49 -78 94 -179z
m777 -968 c186 -118 598 -348 866 -485 l262 -132 -82 -6 c-44 -3 -191 -13
-326 -21 -135 -9 -308 -23 -385 -31 -167 -17 -215 -18 -215 -3 0 9 -20 57 -66
154 -29 64 -84 217 -138 390 -32 99 -61 193 -66 209 l-10 28 28 -18 c15 -10
74 -48 132 -85z m2480 -949 c396 -24 592 -50 2240 -305 382 -59 677 -98 1050
-141 80 -9 151 -18 159 -20 8 -3 -7 -26 -45 -67 -33 -34 -156 -175 -274 -312
-304 -355 -721 -833 -950 -1090 -234 -264 -354 -403 -440 -510 -35 -44 -69
-86 -75 -93 -26 -29 -378 54 -608 144 -435 171 -862 466 -1315 908 -291 284
-667 733 -935 1117 -83 119 -217 329 -217 340 0 21 332 36 850 37 217 1 469
-3 560 -8z m4017 -501 c-3 -8 -255 -179 -263 -179 -4 0 15 24 42 53 27 29 71
80 99 114 l49 61 38 -21 c21 -12 37 -25 35 -28z m-4055 -3119 c216 -18 421
-76 618 -174 127 -63 280 -161 280 -179 0 -7 -37 -85 -82 -173 -87 -167 -172
-344 -232 -479 -59 -131 -57 -129 -104 -137 -52 -9 -107 -47 -377 -262 -110
-87 -206 -163 -213 -169 -9 -7 -19 -4 -35 10 -30 26 -220 162 -282 200 -62 39
-413 215 -555 278 -106 47 -324 115 -368 115 -26 0 -77 48 -117 111 -31 49
-60 146 -81 273 l-17 106 23 25 c62 66 339 218 540 297 268 106 509 154 840
166 25 1 98 -3 162 -8z m298 -1693 c0 -2 -11 -30 -24 -63 -13 -32 -63 -174
-110 -314 -48 -140 -89 -261 -91 -268 -5 -13 -265 222 -265 239 0 10 141 134
335 293 124 102 155 125 155 113z m4975 -153 c-2 -10 -4 -23 -4 -27 -1 -9 -31
18 -31 27 0 3 6 5 13 4 7 -2 11 6 10 22 -2 19 -1 21 7 9 5 -8 7 -24 5 -35z
m-59 -52 c-15 -15 -15 -15 -4 10 7 15 15 23 17 17 2 -6 -4 -18 -13 -27z m51
-24 c-3 -8 -6 -5 -6 6 -1 11 2 17 5 13 3 -3 4 -12 1 -19z m-71 -33 c1 -9 -2
-12 -9 -8 -7 4 -8 0 -3 -12 5 -15 4 -16 -9 -5 -15 12 -15 14 0 22 8 5 12 15 9
21 -4 7 -3 8 1 4 5 -4 10 -14 11 -22z m-33 -50 c-3 -9 -8 -14 -10 -11 -3 3 -2
9 2 15 9 16 15 13 8 -4z m32 -5 c-3 -5 -12 -10 -18 -10 -7 0 -6 4 3 10 19 12
23 12 15 0z m-35 -30 c0 -6 -8 -14 -17 -17 -10 -4 -21 -11 -25 -17 -5 -8 -8
-7 -8 1 0 6 10 19 22 27 27 19 28 19 28 6z m20 -50 c0 -5 -7 -10 -16 -10 -8 0
-12 5 -9 10 3 6 10 10 16 10 5 0 9 -4 9 -10z m-80 -52 c0 -5 -7 -3 -15 6 -8 8
-15 18 -15 22 0 3 7 1 15 -6 8 -7 15 -17 15 -22z m18 7 c-3 -3 -9 2 -12 12 -6
14 -5 15 5 6 7 -7 10 -15 7 -18z m-7 -38 c-10 -9 -11 -8 -5 6 3 10 9 15 12 12
3 -3 0 -11 -7 -18z m-26 3 c-3 -5 -12 -10 -18 -10 -7 0 -6 4 3 10 19 12 23 12
15 0z m205 -110 c-5 -22 -8 -27 -9 -13 -1 21 9 56 14 51 2 -2 0 -19 -5 -38z
m-261 -11 c-11 -6 -11 -11 -1 -21 6 -6 12 -16 12 -22 0 -5 -7 -1 -16 10 -15
19 -16 19 -9 -1 4 -14 3 -17 -5 -9 -14 14 5 68 21 58 8 -4 7 -9 -2 -15z m258
-71 c-3 -8 -6 -5 -6 6 -1 11 2 17 5 13 3 -3 4 -12 1 -19z m-336 -35 c13 -16
12 -17 -3 -4 -10 7 -18 15 -18 17 0 8 8 3 21 -13z m-11 -22 c11 -21 3 -54 -11
-45 -5 3 -9 10 -9 15 0 6 5 7 10 4 13 -8 13 1 0 26 -6 10 -8 19 -6 19 3 0 10
-9 16 -19z m-33 -60 c-1 -11 -6 -17 -14 -14 -10 4 -11 9 -2 19 15 19 18 18 16
-5z m-27 -84 c0 -5 -4 -5 -10 -2 -5 3 -10 14 -10 23 0 15 2 15 10 2 5 -8 10
-19 10 -23z m-10 -29 c0 -5 -4 -7 -9 -4 -5 4 -11 0 -14 -6 -2 -7 -4 -1 -3 14
1 20 4 24 14 16 6 -6 12 -15 12 -20z m433 -33 c5 -28 4 -34 -3 -20 -8 19 -14
73 -6 64 2 -2 6 -22 9 -44z m-451 -14 c8 11 9 11 6 1 -4 -16 -22 -18 -24 -2
-2 7 -1 6 3 -1 4 -8 8 -7 15 2z m-65 -90 c0 -11 -5 -18 -9 -15 -4 3 -5 11 -1
19 7 21 12 19 10 -4z m520 -3 c-3 -8 -6 -5 -6 6 -1 11 2 17 5 13 3 -3 4 -12 1
-19z m-546 -41 c-10 -9 -11 -8 -5 6 3 10 9 15 12 12 3 -3 0 -11 -7 -18z m16
-49 c-3 -8 -6 -5 -6 6 -1 11 2 17 5 13 3 -3 4 -12 1 -19z m20 -60 c-3 -8 -6
-5 -6 6 -1 11 2 17 5 13 3 -3 4 -12 1 -19z m507 -24 c-6 -25 -8 -26 -15 -9
-11 28 -10 43 1 25 8 -13 10 -12 10 4 0 11 2 17 5 14 4 -3 3 -18 -1 -34z
m-534 16 c0 -5 -4 -10 -10 -10 -5 0 -10 5 -10 10 0 6 5 10 10 10 6 0 10 -4 10
-10z m-57 -35 c4 -8 2 -17 -3 -20 -6 -4 -10 3 -10 14 0 25 6 27 13 6z m-13
-53 c0 -5 -7 -9 -15 -9 -8 0 -12 4 -9 9 3 4 9 8 15 8 5 0 9 -4 9 -8z m13 -40
c-4 -18 -8 -20 -19 -11 -17 14 -19 -2 -2 -19 9 -9 9 -12 0 -12 -7 0 -12 5 -12
11 0 5 -4 7 -10 4 -14 -9 -12 7 4 28 10 13 15 15 19 5 3 -9 7 -8 12 5 10 24
16 17 8 -11z m591 -46 c-3 -15 -8 -25 -11 -23 -2 3 -1 17 3 31 3 15 8 25 11
23 2 -3 1 -17 -3 -31z m3 -68 c-3 -7 -5 -2 -5 12 0 14 2 19 5 13 2 -7 2 -19 0
-25z m-667 -31 c0 -5 -4 -5 -10 -2 -5 3 -10 14 -10 23 0 15 2 15 10 2 5 -8 10
-19 10 -23z m-5 -27 c3 -6 -1 -7 -9 -4 -18 7 -21 14 -7 14 6 0 13 -4 16 -10z
m662 -87 c-2 -16 -4 -3 -4 27 0 30 2 43 4 28 2 -16 2 -40 0 -55z m-684 27 c3
-11 1 -18 -4 -14 -5 3 -9 12 -9 20 0 20 7 17 13 -6z m704 -122 c-3 -7 -5 -2
-5 12 0 14 2 19 5 13 2 -7 2 -19 0 -25z m-767 -63 c0 -5 -5 -3 -10 5 -5 8 -10
20 -10 25 0 6 5 3 10 -5 5 -8 10 -19 10 -25z m757 -22 c-3 -10 -5 -2 -5 17 0
19 2 27 5 18 2 -10 2 -26 0 -35z m-790 -35 c-3 -8 -6 -5 -6 6 -1 11 2 17 5 13
3 -3 4 -12 1 -19z m780 -35 c-3 -10 -5 -2 -5 17 0 19 2 27 5 18 2 -10 2 -26 0
-35z m-787 -28 c-6 -15 -13 -26 -15 -23 -3 2 1 19 8 37 6 17 13 28 15 23 1 -5
-2 -22 -8 -37z m27 3 c-3 -8 -6 -5 -6 6 -1 11 2 17 5 13 3 -3 4 -12 1 -19z
m20 -20 c-3 -7 -5 -2 -5 12 0 14 2 19 5 13 2 -7 2 -19 0 -25z m-30 -20 c-3 -8
-6 -5 -6 6 -1 11 2 17 5 13 3 -3 4 -12 1 -19z m770 -20 c-3 -8 -6 -5 -6 6 -1
11 2 17 5 13 3 -3 4 -12 1 -19z"/>
<path d="M20111 17864 c-45 -24 -91 -97 -91 -146 0 -79 53 -148 128 -167 20
-5 91 -14 157 -21 593 -56 1104 -129 1725 -246 230 -44 1151 -231 1400 -285
207 -45 251 -46 308 -3 84 64 85 188 3 257 -51 43 -51 43 -856 208 -323 66
-650 132 -815 164 -578 111 -1475 235 -1815 251 -92 4 -116 2 -144 -12z"/>
<path d="M17505 17260 c-304 -79 -1266 -359 -1700 -495 -93 -29 -273 -85 -400
-123 -126 -39 -381 -116 -565 -172 -635 -193 -820 -250 -1127 -351 -170 -56
-349 -114 -399 -130 -155 -49 -199 -92 -199 -194 0 -71 17 -103 75 -142 59
-41 96 -33 477 91 590 193 466 155 1688 526 220 67 477 145 570 175 374 118
1474 438 1690 491 133 33 175 53 212 100 23 31 28 47 28 94 0 47 -5 63 -29 95
-32 41 -95 75 -141 74 -16 0 -97 -17 -180 -39z"/>
<path d="M28014 13839 c-3 -6 -3 -13 0 -16 3 -4 6 -1 6 5 0 7 4 12 10 12 5 0
10 -28 12 -62 l3 -63 5 66 c4 57 3 65 -12 66 -10 1 -20 -3 -24 -8z"/>
<path d="M28000 13770 c-2 -25 -2 -56 -1 -68 1 -16 -2 -21 -10 -16 -7 4 -9 3
-5 -4 3 -5 0 -13 -6 -15 -8 -4 -9 -6 -2 -6 25 -2 35 28 31 91 -3 56 -4 58 -7
18z"/>
<path d="M28032 13660 c0 -14 2 -19 5 -12 2 6 2 18 0 25 -3 6 -5 1 -5 -13z"/>
<path d="M28052 13625 c0 -16 2 -22 5 -12 2 9 2 23 0 30 -3 6 -5 -1 -5 -18z"/>
<path d="M28022 13545 c-2 -33 13 -64 25 -52 4 5 2 11 -4 15 -6 4 -13 21 -16
37 l-4 30 -1 -30z"/>
<path d="M28045 13442 c4 -8 11 -26 15 -40 7 -22 8 -23 9 -6 1 11 -6 29 -15
40 -8 10 -12 13 -9 6z"/>
<path d="M28060 10405 c-7 -9 -11 -17 -9 -20 3 -2 10 5 17 15 14 24 10 26 -8
5z"/>
<path d="M28051 10334 c-8 -10 -11 -27 -7 -45 3 -16 1 -29 -4 -29 -6 0 -10 -5
-10 -11 0 -28 27 14 28 43 0 18 6 34 11 36 12 4 15 22 4 22 -5 -1 -14 -8 -22
-16z"/>
<path d="M28113 10295 c0 -33 2 -45 4 -27 2 18 2 45 0 60 -2 15 -4 0 -4 -33z"/>
<path d="M28092 10239 c-1 -31 -4 -72 -7 -90 -4 -29 -3 -30 4 -9 7 20 9 21 10
6 1 -11 3 -17 4 -15 2 2 1 40 -3 84 -6 73 -7 75 -8 24z"/>
<path d="M27987 10133 c-4 -3 -7 -11 -7 -17 0 -6 5 -5 12 2 6 6 9 14 7 17 -3
3 -9 2 -12 -2z"/>
<path d="M28122 10100 c0 -14 2 -19 5 -12 2 6 2 18 0 25 -3 6 -5 1 -5 -13z"/>
<path d="M27941 10053 c-10 -26 -10 -27 4 -9 8 11 15 23 15 28 0 15 -7 8 -19
-19z"/>
<path d="M27971 10053 c-1 -6 -4 -20 -7 -30 -5 -17 -5 -17 6 0 6 10 9 23 6 30
-3 9 -5 9 -5 0z"/>
<path d="M28105 10019 c2 -25 0 -59 -5 -75 -5 -19 -9 -22 -9 -10 -1 11 -4 17
-7 14 -3 -3 -1 -20 3 -38 l9 -32 12 48 c9 35 9 62 2 94 l-9 45 4 -46z"/>
<path d="M27991 10034 c0 -11 3 -14 6 -6 3 7 2 16 -1 19 -3 4 -6 -2 -5 -13z"/>
<path d="M27887 9926 c-3 -7 0 -24 7 -37 10 -20 9 -26 -3 -36 -14 -10 -13 -11
3 -9 24 3 32 22 17 40 -9 11 -9 15 1 19 8 4 7 6 -4 6 -11 1 -15 6 -12 16 4 8
4 15 1 15 -3 0 -7 -6 -10 -14z"/>
<path d="M27871 9884 c0 -11 3 -14 6 -6 3 7 2 16 -1 19 -3 4 -6 -2 -5 -13z"/>
<path d="M28122 9860 c0 -14 2 -19 5 -12 2 6 2 18 0 25 -3 6 -5 1 -5 -13z"/>
<path d="M28103 9775 c0 -44 2 -61 4 -37 2 23 2 59 0 80 -2 20 -4 1 -4 -43z"/>
<path d="M28122 9700 c0 -14 2 -19 5 -12 2 6 2 18 0 25 -3 6 -5 1 -5 -13z"/>
<path d="M27807 9689 c7 -7 15 -10 18 -7 3 3 -2 9 -12 12 -14 6 -15 5 -6 -5z"/>
<path d="M28082 9660 c0 -14 2 -19 5 -12 2 6 2 18 0 25 -3 6 -5 1 -5 -13z"/>
<path d="M28103 9600 c0 -47 2 -66 4 -42 2 23 2 61 0 85 -2 23 -4 4 -4 -43z"/>
<path d="M27737 9613 c-10 -9 -9 -23 1 -23 5 0 9 7 9 15 0 17 -1 18 -10 8z"/>
<path d="M28124 9595 c-3 -8 -4 -20 -2 -27 3 -7 7 -1 10 15 6 29 1 36 -8 12z"/>
<path d="M27730 9572 c0 -5 7 -15 15 -22 8 -7 15 -9 15 -6 0 4 -7 14 -15 22
-8 9 -15 11 -15 6z"/>
<path d="M28092 9465 c0 -16 2 -22 5 -12 2 9 2 23 0 30 -3 6 -5 -1 -5 -18z"/>
<path d="M27640 9409 c0 -20 4 -29 13 -27 18 7 20 45 3 51 -12 5 -16 -1 -16
-24z m17 -11 c-3 -8 -6 -5 -6 6 -1 11 2 17 5 13 3 -3 4 -12 1 -19z"/>
<path d="M28120 9428 c0 -8 -7 -29 -16 -47 -8 -17 -13 -37 -11 -44 3 -7 6 -5
6 6 1 9 5 17 10 17 10 0 25 69 17 78 -3 3 -6 -1 -6 -10z"/>
<path d="M27580 9335 c-7 -9 -8 -15 -2 -15 5 0 12 7 16 15 3 8 4 15 2 15 -2 0
-9 -7 -16 -15z"/>
<path d="M27575 9290 c-3 -5 -1 -10 4 -10 6 0 11 5 11 10 0 6 -2 10 -4 10 -3
0 -8 -4 -11 -10z"/>
<path d="M28111 9284 c0 -11 3 -14 6 -6 3 7 2 16 -1 19 -3 4 -6 -2 -5 -13z"/>
<path d="M28101 9220 c0 -9 3 -20 8 -25 5 -6 11 -19 14 -30 4 -15 5 -13 6 8 0
15 -3 27 -8 27 -5 0 -12 8 -14 18 -4 13 -5 13 -6 2z"/>
<path d="M27493 9189 c-2 -23 3 -25 10 -4 4 8 3 16 -1 19 -4 3 -9 -4 -9 -15z"/>
<path d="M28092 9145 c0 -16 2 -22 5 -12 2 9 2 23 0 30 -3 6 -5 -1 -5 -18z"/>
<path d="M27497 9147 c-3 -8 1 -14 8 -14 7 0 11 6 8 14 -3 7 -6 13 -8 13 -2 0
-5 -6 -8 -13z"/>
<path d="M27416 9091 c-12 -13 -14 -21 -6 -26 5 -3 8 -11 5 -16 -3 -5 1 -6 9
-3 9 3 16 10 16 16 0 5 -4 6 -10 3 -14 -9 -12 19 2 33 7 7 10 12 7 12 -3 0
-14 -9 -23 -19z"/>
<path d="M27322 8981 c-10 -6 -9 -10 7 -14 12 -3 24 0 28 5 3 6 1 8 -5 4 -5
-3 -12 -2 -14 4 -2 5 -9 6 -16 1z"/>
<path d="M27259 8897 c-10 -7 -14 -19 -10 -30 5 -14 9 -12 18 13 6 16 11 30
10 30 -1 0 -9 -6 -18 -13z"/>
<path d="M27256 8825 c-16 -24 -12 -32 9 -17 9 6 17 42 10 42 -1 0 -10 -11
-19 -25z"/>
<path d="M27120 8749 c-7 -11 -9 -23 -6 -27 3 -3 6 -1 6 5 0 9 25 10 59 2 7
-2 16 3 18 11 3 10 2 11 -4 3 -5 -7 -14 -9 -22 -3 -8 4 -21 6 -29 2 -11 -4
-14 -1 -9 11 9 24 0 21 -13 -4z"/>
<path d="M27093 8677 c6 -17 -7 -24 -16 -9 -2 4 -2 1 0 -7 2 -9 -2 -11 -14 -7
-14 6 -15 4 -7 -4 9 -9 17 -9 33 -1 23 13 27 26 9 37 -8 5 -9 2 -5 -9z"/>
<path d="M27017 8593 c6 -16 5 -17 -12 -3 -15 12 -17 12 -14 1 3 -8 14 -18 26
-22 17 -6 20 -4 16 12 -3 11 -9 22 -14 25 -5 3 -6 -3 -2 -13z"/>
<path d="M26947 8571 c-36 -24 -46 -34 -23 -25 18 7 18 6 1 -19 -19 -30 -30
-36 -21 -12 3 8 1 15 -4 15 -6 0 -10 -10 -10 -22 0 -17 -3 -19 -9 -9 -6 9 -11
10 -15 2 -4 -6 -3 -11 3 -11 6 0 7 -8 4 -17 -5 -12 -1 -11 15 5 12 12 26 22
30 22 5 0 14 10 21 23 9 18 10 19 6 2 -2 -11 -1 -26 4 -34 6 -9 8 -5 7 15 -1
16 -5 34 -9 40 -8 13 19 28 34 19 5 -4 6 1 3 9 -3 9 -7 16 -8 15 0 0 -13 -8
-29 -18z"/>
<path d="M26845 8450 c-3 -5 -1 -10 4 -10 6 0 11 5 11 10 0 6 -2 10 -4 10 -3
0 -8 -4 -11 -10z"/>
<path d="M26857 8422 c-15 -16 -15 -18 1 -18 10 0 18 8 18 18 0 10 -1 18 -2
18 0 0 -8 -8 -17 -18z"/>
<path d="M26736 8351 c-3 -5 -15 -7 -25 -4 -26 7 -36 -14 -11 -22 11 -4 17
-11 14 -17 -4 -7 -2 -8 4 -4 7 4 12 14 12 22 0 8 7 14 15 14 8 0 15 5 15 10 0
12 -17 13 -24 1z"/>
<path d="M26790 8295 c-10 -12 -7 -15 14 -21 14 -3 31 -4 38 -1 7 3 1 6 -14 6
-34 1 -37 18 -5 24 21 4 21 4 1 6 -12 0 -27 -6 -34 -14z"/>
<path d="M26733 8273 c9 -2 23 -2 30 0 6 3 -1 5 -18 5 -16 0 -22 -2 -12 -5z"/>
<path d="M27148 8233 c7 -3 16 -2 19 1 4 3 -2 6 -13 5 -11 0 -14 -3 -6 -6z"/>
<path d="M27320 8221 c25 -3 44 -10 42 -16 -2 -5 2 -11 10 -13 9 -2 8 0 -2 7
-12 9 -11 11 8 11 13 0 32 -4 42 -10 15 -8 17 -6 13 8 -3 14 -17 17 -81 18
-57 1 -66 0 -32 -5z"/>
<path d="M27158 8213 c6 -2 18 -2 25 0 6 3 1 5 -13 5 -14 0 -19 -2 -12 -5z"/>
<path d="M27870 8150 c8 -5 24 -10 34 -10 26 0 18 6 -19 14 -22 5 -26 4 -15
-4z"/>
<path d="M27810 8140 c14 -4 32 -8 40 -9 13 -1 13 0 0 9 -8 5 -26 9 -40 9
l-25 -1 25 -8z"/>
<path d="M27785 8120 c4 -6 11 -8 16 -5 14 9 11 15 -7 15 -8 0 -12 -5 -9 -10z"/>
<path d="M28038 8073 c7 -3 16 -2 19 1 4 3 -2 6 -13 5 -11 0 -14 -3 -6 -6z"/>
<path d="M28130 8061 c0 -5 7 -11 14 -14 10 -4 13 -1 9 9 -6 15 -23 19 -23 5z"/>
<path d="M349 13650 c-72 -21 -119 -86 -119 -162 0 -33 11 -62 47 -123 102
-177 150 -263 183 -329 45 -89 94 -141 145 -155 114 -30 220 71 200 191 -15
85 -232 474 -302 541 -44 41 -99 54 -154 37z"/>
<path d="M965 11758 c-74 -26 -267 -197 -297 -263 -10 -22 -14 -23 -127 -22
-143 1 -205 -19 -280 -92 -65 -63 -93 -138 -94 -247 0 -105 25 -163 87 -199
118 -69 249 9 249 148 0 56 1 57 29 57 16 0 61 -5 99 -12 140 -23 213 15 305
158 51 79 95 122 180 176 54 34 89 103 81 158 -15 111 -124 176 -232 138z"/>
<path d="M25040 5129 c-542 -34 -774 -122 -930 -355 -64 -96 -87 -172 -71
-232 8 -29 11 -218 11 -615 0 -314 5 -729 10 -922 5 -192 14 -611 20 -930 6
-319 17 -742 25 -940 12 -292 34 -988 35 -1107 l0 -28 2930 0 2930 0 0 2015 0
2015 -22 4 c-13 3 -329 37 -703 76 -855 89 -1662 173 -1960 205 -127 13 -809
85 -1515 160 -1537 161 -1384 143 -1368 162 84 101 403 155 913 155 481 -1
886 -38 2436 -226 424 -52 943 -103 1331 -131 431 -31 805 -55 852 -55 l36 0
0 170 c0 132 -3 170 -13 170 -7 0 -118 7 -247 15 -864 56 -1315 97 -2088 190
-847 101 -1046 124 -1302 149 -624 61 -977 76 -1310 55z"/>
<path d="M6310 4754 c-82 -14 -145 -41 -189 -79 -25 -23 -62 -51 -81 -62 -39
-24 -74 -67 -91 -110 -15 -41 -12 -138 6 -193 55 -167 267 -168 323 -3 6 18
25 51 43 73 26 32 39 40 66 40 102 0 189 102 169 197 -22 97 -130 157 -246
137z"/>
<path d="M6840 4659 c-84 -34 -119 -125 -89 -233 34 -123 149 -181 248 -125
94 53 112 169 44 287 -39 68 -131 100 -203 71z"/>
<path d="M703 4295 c-64 -17 -120 -45 -161 -80 -16 -14 -37 -25 -46 -25 -49 0
-180 -36 -243 -67 -87 -42 -177 -129 -222 -213 l-32 -59 3 -333 3 -334 38 -63
c38 -63 38 -64 18 -85 -56 -62 -61 -81 -61 -250 0 -143 2 -162 21 -192 64
-104 228 -187 454 -229 64 -12 93 -14 123 -5 79 21 124 79 124 160 0 100 -54
147 -206 179 -124 26 -206 62 -206 90 0 15 14 26 50 42 54 23 106 74 116 115
4 13 4 52 2 84 -3 48 -11 69 -36 103 -116 157 -145 214 -162 325 -22 137 19
290 92 345 37 28 85 42 173 52 74 9 127 31 183 78 38 32 51 37 93 37 60 0 94
-16 218 -105 101 -73 144 -90 200 -80 84 16 136 85 129 175 -5 65 -21 90 -94
148 -226 177 -397 233 -571 187z"/>
<path d="M7148 4061 c-150 -54 -239 -127 -314 -255 -141 -239 -69 -607 138
-710 134 -67 268 2 268 139 0 60 -21 98 -73 136 -57 41 -66 62 -67 147 0 127
54 196 188 235 155 45 213 164 133 275 -48 67 -145 79 -273 33z"/>
<path d="M2653 2659 c-137 -67 -236 -241 -249 -438 -20 -290 156 -521 445
-588 78 -18 248 -23 421 -13 l85 5 6 -50 c14 -109 70 -261 125 -336 91 -125
255 -133 360 -17 39 44 94 153 143 285 16 44 49 119 72 164 27 54 42 98 43
124 2 85 -57 159 -138 172 -43 7 -114 -17 -144 -50 -27 -29 -96 -152 -113
-202 l-13 -40 -8 63 c-10 87 -25 127 -61 169 -66 75 -131 85 -342 57 -79 -10
-164 -14 -246 -12 -113 4 -133 8 -183 32 -78 38 -107 84 -114 175 -3 48 0 83
12 119 16 46 20 51 61 61 136 34 179 186 79 284 -59 59 -161 74 -241 36z"/>
</g>
</svg>
